<?xml version="1.0" standalone="no"?><!DOCTYPE svg PUBLIC "-//W3C//DTD SVG 1.1//EN" "http://www.w3.org/Graphics/SVG/1.1/DTD/svg11.dtd"><svg t="1621585484547" class="icon" viewBox="0 0 1024 1024" version="1.1" xmlns="http://www.w3.org/2000/svg" p-id="7121" xmlns:xlink="http://www.w3.org/1999/xlink" width="200" height="200"><defs><style type="text/css"></style></defs><path d="M438.08398437 206.05273437c-17.75390625 0-31.90429688 15.20507813-31.90429687 34.10156251 0 18.89648438 14.23828125 34.18945313 31.90429688 34.18945312h148.71093749c16.875 0 31.02539063-15.29296875 31.02539063-34.18945313 0-18.80859375-14.15039063-34.1015625-31.9921875-34.1015625H438.08398437z m1e-8 1e-8" fill="#FFBD27" p-id="7122"></path><path d="M739.109375 228.81640625H658.77734375c-11.16210938 0-19.77539063 10.01953125-18.6328125 21.18164063l0.703125 4.39453124c0.26367188 1.7578125 0.3515625 3.515625 0.3515625 5.09765625 0 19.95117188-13.53515625 38.05664063-25.48828125 38.05664063H408.2890625c-13.09570313 0-26.80664063-17.9296875-26.80664063-38.05664063 0-1.58203125 0.08789063-3.33984375 0.35156251-5.09765625l0.703125-4.39453125c1.0546875-11.25-7.47070313-21.18164063-18.63281251-21.18164062h-81.12304687c-61.43554688 0-87.1875 34.98046875-87.1875 98.34960938v373.00781249c0 63.19335938 29.70703125 97.55859375 91.31835938 97.55859376h448.06640624c64.6875 0 97.82226563-31.640625 97.82226563-97.55859375V327.16601562c0.08789063-59.58984375-34.453125-98.34960938-93.69140625-98.34960937z m-49.921875 224.03320313l-171.5625 172.26562499c-4.5703125 4.5703125-10.81054688 7.20703125-17.31445313 7.20703126-6.50390625 0-12.74414063-2.54882813-17.31445312-7.20703125l-98.0859375-98.4375c-9.58007813-9.66796875-9.58007813-25.22460938 0-34.8046875 4.5703125-4.5703125 10.81054688-7.20703125 17.31445313-7.20703125 6.50390625 0 12.74414063 2.63671875 17.31445312 7.20703125l80.68359375 81.03515625 154.24804688-154.86328126c4.5703125-4.65820313 10.81054688-7.20703125 17.31445312-7.20703124 6.50390625 0 12.74414063 2.63671875 17.31445312 7.20703125 9.58007813 9.58007813 9.58007813 25.22460938 0.08789063 34.8046875z" fill="#3DB963" p-id="7123"></path></svg>