<?xml version="1.0" standalone="no"?><!DOCTYPE svg PUBLIC "-//W3C//DTD SVG 1.1//EN" "http://www.w3.org/Graphics/SVG/1.1/DTD/svg11.dtd"><svg t="1621581213579" class="icon" viewBox="0 0 1024 1024" version="1.1" xmlns="http://www.w3.org/2000/svg" p-id="5091" xmlns:xlink="http://www.w3.org/1999/xlink" width="200" height="200"><defs><style type="text/css"></style></defs><path d="M635.0730608 305.46842432c-43.87223436-6.96683533-93.86398672-10.73269231-145.92696015-10.73269231-47.63809132 0-93.5815474 3.10683189-134.62938918 9.03805637v-1.88292816C356.87037183 224.40835163 421.54896639 163.49561337 498.93732923 165.84927442 573.87788389 168.01464189 633.75501128 228.64494083 635.0730608 303.5854955v1.88292882z" fill="#57B127" p-id="5092"></path><path d="M513.24758565 165.66098154C436.42410214 155.30487431 365.72013599 209.15663012 355.36402945 285.9801143c-0.65902509 4.80146784-1.03561086 9.69708213-1.22390375 14.59269575v1.88292883c12.23903538-1.7887824 24.85465653-3.29512477 37.84686344-4.51902852C395.18796748 230.43372253 446.21533003 174.79318501 513.24758565 165.66098154z" fill="#FFFFFF" p-id="5093"></path><path d="M696.45653126 316.57770241c-20.24148157-5.46049294-40.671256-9.79122857-61.38347046-12.99220691-33.89271356-5.27220005-68.06786578-8.56732484-102.33716512-9.7912279-14.3102571-0.56487865-28.80880641-0.84731797-43.49564858-0.84731798-11.67415672 0-23.25416703 0.18829288-34.64588512 0.56487866-33.42198136 0.94146442-66.84396272 3.76585699-99.98350407 8.47317839-24.5722172 3.38927122-48.86199508 8.28488551-72.77518786 14.78098861C226.10098609 332.01771612 195.40925153 352.63578345 195.40925153 374.76019384s30.69173524 42.74247773 86.42641852 58.18249146c39.16491295 10.82683876 87.55617649 18.26440698 140.18402855 21.65367818 21.74782463 1.41219663 44.24882013 2.16536748 67.12640205 2.16536748 22.97172769 0 45.47272387-0.75317153 67.31469493-2.16536749 47.92053067-3.10683189 92.26349791-9.50878925 129.35718912-18.8292856 0.18829288-0.09414644 0.37658577-0.09414644 0.56487865-0.18829289 2.54195324-0.65902509 4.98976073-1.31805019 7.43756754-1.88292815 0.84731797-0.28243933 1.69463595-0.47073221 2.63610037-0.75317153h0.18829288c0.84731797-0.18829288 1.69463595-0.47073221 2.4478068-0.65902508 1.60048951-0.47073221 3.29512477-0.94146442 4.80146785-1.41219663 0.09414644 0 0.09414644 0 0.18829287-0.09414644 1.41219663-0.37658577 2.73024612-0.84731797 4.04829632-1.22390308 1.1297573-0.37658577 2.16536748-0.65902509 3.29512478-1.03561085 0.75317153-0.28243933 1.60048951-0.47073221 2.35366037-0.75317152l1.69463595-0.56487866c0.75317153-0.28243933 1.50634307-0.47073221 2.25951392-0.75317153 0.28243933-0.09414644 0.65902509-0.18829288 0.94146442-0.28243865 0.75317153-0.28243933 1.41219663-0.47073221 2.07122171-0.75317154l2.25951392-0.84731798c0.65902509-0.18829288 1.22390374-0.47073221 1.78878239-0.65902509 0.47073221-0.18829288 1.03561086-0.37658577 1.5063424-0.56487864 1.41219663-0.47073221 2.73024612-1.03561086 4.0482963-1.60048884l1.97707528-0.84731797 1.97707459-0.84731798c1.03561086-0.47073221 2.07122104-0.84731797 3.10683258-1.31805018 0.47073221-0.18829288 1.03561086-0.47073221 1.50634239-0.65902509 0.37658577-0.18829288 0.75317153-0.37658577 1.12975729-0.47073153 0.28243933-0.09414644 0.56487865-0.28243933 0.75317155-0.37658577 0.94146442-0.47073221 1.88292884-0.84731797 2.82439256-1.31805018 3.57756411-1.69463595 6.87268889-3.38927122 9.88537502-5.17805362 19.30001715-11.01513164 29.37368505-23.25416703 29.37368504-35.96393461 0-22.12441039-30.69173524-42.74247773-86.42641918-58.18249143z m-0.56487865 114.48205406c-39.25905938 10.82683876-87.74446938 18.26440698-140.56061433 21.65367819-21.4653853 1.41219663-43.68394147 2.07122104-66.27908408 2.07122171-22.50099616 0-44.62540587-0.65902509-65.99664474-2.07122171-52.9102914-3.38927122-101.39570069-10.73269231-140.7489072-21.65367819C227.5131827 415.90218207 197.29217967 395.94313983 197.29217967 374.76019384c0-1.88292884 0.28243933-3.76585699 0.65902511-5.55463937 4.80146784-19.11172425 34.36344578-36.99954546 84.35519747-50.83906967 23.72489922-6.40195668 47.82638422-11.29757097 72.21030922-14.68684286 33.32783492-4.7073214 66.93810916-7.53171398 100.54838273-8.4731784 11.20342452-0.37658577 22.59514192-0.56487865 34.08100645-0.56487798 14.49854931 0 28.80880641 0.28243933 42.93077062 0.84731731 34.45759222 1.31805019 68.82103732 4.61317496 102.99618953 9.885375 20.52392088 3.20097833 40.85954889 7.53171398 60.81859181 12.89806048 49.99175237 13.8395249 79.55373031 31.72734542 84.35519748 50.74492324 0.47073221 1.7887824 0.65902509 3.67171055 0.75317153 5.55463938 0 21.37123887-30.22100303 41.33028111-85.10836901 56.4878555z" fill="#3F3D56" p-id="5094"></path><path d="M782.31807179 375.60751183c0 12.61562115-10.35610655 24.47807077-28.90295283 35.11661662-3.10683189 1.7887824-6.40195668 3.48341767-9.88537502 5.17805363-0.94146442 0.47073221-1.88292884 0.84731797-2.82439256 1.31805017-0.28243933 0.09414644-0.56487865 0.28243933-0.75317155 0.37658577-0.37658577 0.18829288-0.75317153 0.37658577-1.1297573 0.47073153-0.47073221 0.18829288-0.94146442 0.47073221-1.50634238 0.65902509-1.03561086 0.47073221-2.07122104 0.84731797-3.10683258 1.31805019l-1.97707459 0.84731797-1.97707528 0.84731798c-1.31805019 0.56487865-2.73024612 1.03561086-4.04829631 1.60048883-0.47073221 0.18829288-1.03561086 0.37658577-1.50634239 0.56487864-0.56487865 0.18829288-1.22390374 0.47073221-1.78878239 0.65902509l-2.25951391 0.84731798c-0.65902509 0.28243933-1.41219663 0.47073221-2.07122172 0.75317153-0.28243933 0.09414644-0.56487865 0.18829288-0.94146442 0.28243865-0.75317153 0.28243933-1.50634307 0.47073221-2.25951393 0.75317154l-1.69463595 0.56487865c-0.75317153 0.28243933-1.60048951 0.47073221-2.35366035 0.75317153-1.03561086 0.37658577-2.16536748 0.65902509-3.29512479 1.03561085-1.31805019 0.37658577-2.73024612 0.84731797-4.04829631 1.22390307-0.09414644 0-0.09414644 0-0.18829288 0.09414644l-4.80146784 1.41219664c-0.84731797 0.18829288-1.60048951 0.47073221-2.44780681 0.65902508h-0.18829288c-0.84731797 0.28243933-1.69463595 0.47073221-2.63610037 0.75317153-2.44780681 0.65902509-4.89561429 1.31805019-7.43756753 1.88292816-0.18829288 0-0.37658577 0.09414644-0.56487866 0.18829288-36.15222749 9.03805704-80.40104761 15.6283066-129.45133557 18.73513917-21.4653853 1.41219663-43.87223436 2.16536748-66.84396272 2.16536748-23.16002057 0-45.75516319-0.75317153-67.40884137-2.16536748-129.16889693-8.47317839-225.38654401-40.48296312-225.386544-78.80055878 0-2.35366037 0.37658577-4.61317496 1.03561086-6.87268956 0.09414644 0.18829288 0.09414644 0.28243933 0.18829287 0.47073221C211.41414389 404.51046466 306.784473 433.03683174 430.492877 440.00366707c18.92343139 1.03561086 38.60003497 1.60048951 58.65322365 1.6004895 20.14733512 0 39.91808448-0.56487865 58.93566298-1.60048951 123.61425755-6.96683533 218.89044091-35.49320239 232.2592329-70.79811259 0.18829288-0.56487865 0.47073221-1.1297573 0.56487865-1.69463526 0.94146442 2.54195324 1.41219663 5.3663465 1.41219661 8.09659261zM281.74152428 365.43969748c-15.6283066 0-32.29222406-3.38927122-32.29222474-9.602935s16.66391746-9.60293568 32.29222474-9.60293571 32.29222406 3.38927122 32.29222407 9.60293571-16.66391746 9.60293568-32.29222407 9.602935z m0-17.32294186c-17.98196764 0-30.40929591 4.04829631-30.4092959 7.72000686s12.52147471 7.72000686 30.4092959 7.72000685 30.40929591-4.04829631 30.40929522-7.72000685-12.52147471-7.72000686-30.40929522-7.72000686z" fill="#3F3D56" p-id="5095"></path><path d="M348.58548632 409.68851827c-15.6283066 0-32.29222406-3.38927122-32.29222405-9.60293568s16.66391746-9.60293568 32.29222405-9.6029357c15.6283066 0 32.29222406 3.38927122 32.29222407 9.6029357s-16.66391746 9.60293568-32.29222407 9.60293568z m0-17.32294254c-17.98196764 0-30.40929591 4.04829631-30.40929522 7.72000686s12.52147471 7.72000686 30.40929522 7.72000686 30.40929591-4.04829631 30.40929591-7.72000686-12.52147471-7.72000686-30.40929591-7.72000686zM695.98579905 365.43969748c-15.6283066 0-32.29222406-3.38927122-32.29222407-9.602935s16.66391746-9.60293568 32.29222407-9.60293571c15.6283066 0 32.29222406 3.38927122 32.29222406 9.60293571s-16.66391746 9.60293568-32.29222406 9.602935z m0-17.32294186c-17.98196764 0-30.40929591 4.04829631-30.4092959 7.72000686s12.52147471 7.72000686 30.4092959 7.72000685 30.40929591-4.04829631 30.40929523-7.72000685-12.52147471-7.72000686-30.40929523-7.72000686zM629.14183632 409.68851827c-15.6283066 0-32.29222406-3.38927122-32.29222406-9.60293568s16.66391746-9.60293568 32.29222407-9.6029357c15.6283066 0 32.29222406 3.38927122 32.29222407 9.6029357s-16.66391746 9.60293568-32.29222408 9.60293568z m1e-8-17.32294254c-17.98196764 0-30.40929591 4.04829631-30.40929591 7.72000686s12.52147471 7.72000686 30.40929591 7.72000686 30.40929591-4.04829631 30.40929591-7.72000686-12.52147471-7.72000686-30.40929591-7.72000686zM488.86366132 430.40073138c-15.6283066 0-32.29222406-3.38927122-32.29222405-9.60293502s16.66391746-9.60293568 32.29222405-9.6029357c15.6283066 0 32.29222406 3.38927122 32.29222407 9.6029357s-16.66391746 9.60293568-32.29222407 9.60293502z m0-17.32294188c-17.98196764 0-30.40929591 4.04829631-30.4092959 7.72000686s12.52147471 7.72000686 30.4092959 7.72000686 30.40929591-4.04829631 30.40929591-7.72000686-12.52147471-7.72000686-30.40929591-7.72000686z" fill="#3F3D56" p-id="5096"></path><path d="M512.68270699 588.75502046m-39.54149871 0a39.54149871 39.54149871 0 1 0 79.08299811 0 39.54149871 39.54149871 0 1 0-79.08299811 0Z" fill="#2F2E41" p-id="5097"></path><path d="M478.38798837 624.39885732l19.27648121-9.6537743 5.39647284 10.77505848-19.27648054 9.65377429z" fill="#2F2E41" p-id="5098"></path><path d="M475.84218963 631.61721805a9.97952146 3.76585699 33.399 1 0 4.14595352-6.28790796 9.97952146 3.76585699 33.399 1 0-4.14595352 6.28790796Z" fill="#2F2E41" p-id="5099"></path><path d="M522.29505747 625.54932685l5.39553183-10.77411748 19.27648055 9.65377496-5.39647353 10.77505848z" fill="#2F2E41" p-id="5100"></path><path d="M539.07550583 633.95016413a3.76585699 9.97952146 56.601 1 0 16.6629554-10.986778 3.76585699 9.97952146 56.601 1 0-16.6629554 10.986778Z" fill="#2F2E41" p-id="5101"></path><path d="M509.85831443 579.05793834m-13.55708558 0a13.55708557 13.55708557 0 1 0 27.11417113 0 13.55708557 13.55708557 0 1 0-27.11417113 0Z" fill="#FFFFFF" p-id="5102"></path><path d="M506.7745595 576.52821608a4.51902852 4.51902852 0 1 0 6.39075969-6.39098238 4.51902852 4.51902852 0 1 0-6.39075969 6.39098238Z" fill="#3F3D56" p-id="5103"></path><path d="M543.84517443 545.73010341c0.56487865-14.68684218-12.05074251-27.02002401-28.1497813-27.67904911s-29.75027082 10.63854587-30.31514948 25.32538874 10.63854587 17.98196764 26.83173115 18.64099206 31.06832032-1.60048951 31.63319963-16.28733169z" fill="#57B127" p-id="5104"></path><path d="M549.13011673 598.4960629a19.77074936 6.21366379 49.355 1 0 9.42935939-8.09479278 19.77074936 6.21366379 49.355 1 0-9.42935939 8.09479278Z" fill="#2F2E41" p-id="5105"></path><path d="M458.79997414 609.48022632a6.21366379 19.77074936 40.645 1 0 25.75616024-30.00250573 6.21366379 19.77074936 40.645 1 0-25.75616024 30.00250573Z" fill="#2F2E41" p-id="5106"></path><path d="M523.50954642 604.38332706c0.84731797 4.89561429-2.35366037 9.60293568-7.24927532 10.45025367s-9.60293568-2.35366037-10.45025299-7.24927532c-0.84731797-4.89561429 2.91853901-6.59024957 7.81415331-7.53171398s9.03805704-0.56487865 9.88537501 4.33073563z" fill="#FFFFFF" p-id="5107"></path><path d="M445.83874496 630.8384731c-1.03561086 0-1.88292884-0.84731797-1.88292884-1.88292883v-111.09278284c0-1.03561086 0.84731797-1.88292884 1.88292884-1.88292817s1.88292884 0.84731797 1.88292815 1.88292816v111.09278284c0 1.03561086-0.84731797 1.88292884-1.88292815 1.88292884zM417.59481652 730.63368428c-1.03561086 0-1.88292884-0.84731797-1.88292815-1.88292814v-80.96592626c0-1.03561086 0.84731797-1.88292884 1.88292815-1.88292882s1.88292884 0.84731797 1.88292884 1.88292882v80.96592626c0 1.03561086-0.84731797 1.88292884-1.88292884 1.88292814zM490.08756507 663.78972226c-1.03561086 0-1.88292884-0.84731797-1.88292883-1.88292885v-111.09278284c0-1.03561086 0.84731797-1.88292884 1.88292883-1.88292815s1.88292884 0.84731797 1.88292815 1.88292815v111.09278284c0 1.03561086-0.84731797 1.88292884-1.88292815 1.88292884zM462.78510106 743.81418408c-1.03561086 0-1.88292884-0.84731797-1.88292816-1.88292815v-45.19028452c0-1.03561086 0.84731797-1.88292884 1.88292816-1.88292883s1.88292884 0.84731797 1.88292883 1.88292883v45.19028452c0 1.03561086-0.84731797 1.88292884-1.88292883 1.88292815zM501.38513603 512.21397628c-1.03561086 0-1.88292884-0.84731797-1.88292815-1.88292884v-45.19028452c0-1.03561086 0.84731797-1.88292884 1.88292815-1.88292883s1.88292884 0.84731797 1.88292883 1.88292883v45.19028452c0 1.03561086-0.84731797 1.88292884-1.88292883 1.88292884zM407.23870998 531.98472564c-1.03561086 0-1.88292884-0.84731797-1.88292884-1.88292883v-45.19028454c0-1.03561086 0.84731797-1.88292884 1.88292883-1.88292815s1.88292884 0.84731797 1.88292883 1.88292815v45.19028454c0 1.03561086-0.84731797 1.88292884-1.88292883 1.88292883zM571.05349132 536.69204705c-1.03561086 0-1.88292884-0.84731797-1.88292816-1.88292885v-45.19028453c0-1.03561086 0.84731797-1.88292884 1.88292816-1.88292815s1.88292884 0.84731797 1.88292884 1.88292815v45.19028453c0 1.03561086-0.84731797 1.88292884-1.88292884 1.88292885zM567.28763433 677.91168579c-1.03561086 0-1.88292884-0.84731797-1.88292883-1.88292816v-54.60492734c0-1.03561086 0.84731797-1.88292884 1.88292883-1.88292883s1.88292884 0.84731797 1.88292883 1.88292883v54.60492734c0 1.03561086-0.84731797 1.88292884-1.88292883 1.88292816zM529.62906379 725.92636356c-1.03561086 0-1.88292884-0.84731797-1.88292816-1.88292882v-80.96592626c0-1.03561086 0.84731797-1.88292884 1.88292816-1.88292884s1.88292884 0.84731797 1.88292883 1.88292884v80.96592626c0 1.03561086-0.84731797 1.88292884-1.88292883 1.88292882zM537.16077775 587.53111671c-1.03561086 0-1.88292884-0.84731797-1.88292815-1.88292815v-111.09278284c0-1.03561086 0.84731797-1.88292884 1.88292815-1.88292882s1.88292884 0.84731797 1.88292884 1.88292882v111.09278284c0 1.03561086-0.84731797 1.88292884-1.88292884 1.88292816z" fill="#CCCCCC" p-id="5108"></path><path d="M750.11606654 812.4426139a20.24148157 6.40195668 50.058 1 0 9.81669337-8.22026457 20.24148157 6.40195668 50.058 1 0-9.81669337 8.22026457Z" fill="#2F2E41" p-id="5109"></path><path d="M711.89654498 801.33765043m-40.57710957 0a40.57710957 40.57710957 0 1 0 81.15421913 0 40.57710957 40.57710957 0 1 0-81.15421913 0Z" fill="#2F2E41" p-id="5110"></path><path d="M716.69801283 833.1591423h12.33318182v22.03026395h-12.33318182zM692.03164918 833.1591423h12.33318182v22.03026395h-12.33318182z" fill="#2F2E41" p-id="5111"></path><path d="M708.50727375 855.47184558a10.26196078 3.86000343 0 1 0 20.5239209 0 10.26196078 3.86000343 0 1 0-20.5239209 0Z" fill="#2F2E41" p-id="5112"></path><path d="M683.84091012 855.00111337a10.26196078 3.86000343 0 1 0 20.52392088 0 10.26196078 3.86000343 0 1 0-20.52392088 0Z" fill="#2F2E41" p-id="5113"></path><path d="M699.09263095 750.40443433c3.57756411-14.59269574 19.58245646-23.16002057 35.68149528-19.20587139s26.17270671 19.01757782 22.5951426 33.61027424c-3.57756411 14.59269574-15.6283066 14.59269574-31.72734609 10.63854588s-30.12685658-10.45025299-26.5492918-25.04294873z" fill="#CCCCCC" p-id="5114"></path><path d="M663.43775802 788.2819693a20.24148157 6.40195667 25.373 1 0 5.48659728-11.56881399 20.24148157 6.40195667 25.373 1 0-5.48659727 11.56881398Z" fill="#2F2E41" p-id="5115"></path><path d="M705.77702694 792.77032561m-13.55708487 0a13.55708557 13.55708557 0 1 0 27.11417043 0 13.55708557 13.55708557 0 1 0-27.11417043 0Z" fill="#FFFFFF" p-id="5116"></path><path d="M700.22238825 787.96885777m-4.51902852 0a4.51902852 4.51902852 0 1 0 9.03805704 0 4.51902852 4.51902852 0 1 0-9.03805704 0Z" fill="#3F3D56" p-id="5117"></path><path d="M705.6828805 821.01425336m-5.64878514-1e-8a5.64878582 5.64878582 0 1 0 11.29757097 0 5.64878582 5.64878582 0 1 0-11.29757097 0Z" fill="#FFFFFF" p-id="5118"></path><path d="M827.60250279 859.61428833h-222.18556569c-0.56487865 0-0.94146442-0.37658577-0.94146441-0.94146441s0.37658577-0.94146442 0.94146441-0.94146443h222.18556569c0.56487865 0 0.94146442 0.37658577 0.94146373 0.94146443 0 0.47073221-0.37658577 0.94146442-0.94146373 0.94146441z" fill="#3F3D56" p-id="5119"></path></svg>