<?xml version="1.0" standalone="no"?><!DOCTYPE svg PUBLIC "-//W3C//DTD SVG 1.1//EN" "http://www.w3.org/Graphics/SVG/1.1/DTD/svg11.dtd"><svg t="1621585164822" class="icon" viewBox="0 0 1024 1024" version="1.1" xmlns="http://www.w3.org/2000/svg" p-id="6690" xmlns:xlink="http://www.w3.org/1999/xlink" width="200" height="200"><defs><style type="text/css"></style></defs><path d="M305.75915527 359.59240993l402.6763916-18.29223633h44.41223144L717.16967773 265.00012478c-12.27722169-30.73425293-46.55456543-46.88415529-79.34875488-37.49084474l-370.45898438 113.70849611 38.3972168 18.37463378z m2e-8 0" fill="#FFBD27" p-id="6691"></path><path d="M734.63793945 337.18030055c51.2512207 0 92.77954102 40.7043457 92.77954102 90.96679688v66.74194336H696.81750489c-43.09387207 0-78.35998537 33.61816406-79.67834473 75.47607423l-0.08239747 2.7191162c0 42.26989747 34.27734375 76.79443359 76.95922853 78.11279296l2.80151367 0.08239747h130.59997558v68.1427002c0 50.26245117-41.52832031 90.96679689-92.77954102 90.96679686H289.19726562c-51.2512207 0-92.77954102-40.7043457-92.77954101-90.96679686V428.14709743c0-50.26245117 41.52832031-90.96679689 92.77954102-90.96679688h445.44067382z m0 0" fill="#3DB963" p-id="6692"></path><path d="M647.13183594 573.82580837c0 24.88403321 20.18737793 45.07141114 45.07141113 45.07141114 24.88403321 0 45.07141114-20.18737793 45.07141113-45.07141114 0-24.88403321-20.18737793-45.07141114-45.07141113-45.07141113-24.88403321 0-45.07141114 20.18737793-45.07141113 45.07141113z m0 0" fill="#FFBD27" p-id="6693"></path></svg>