<?xml version="1.0" standalone="no"?><!DOCTYPE svg PUBLIC "-//W3C//DTD SVG 1.1//EN" "http://www.w3.org/Graphics/SVG/1.1/DTD/svg11.dtd"><svg t="1621585498261" class="icon" viewBox="0 0 1024 1024" version="1.1" xmlns="http://www.w3.org/2000/svg" p-id="7264" xmlns:xlink="http://www.w3.org/1999/xlink" width="200" height="200"><defs><style type="text/css"></style></defs><path d="M310.90625 248.41601562c-10.10742188-8.7890625-26.45507813-7.55859375-35.24414063 2.54882813-60.38085938 70.48828125-94.39453125 161.015625-94.39453124 254.1796875 0 11.33789063 0 21.35742188 1.23046875 32.6953125l-20.12695313-23.90625c-8.7890625-10.10742188-25.13671875-11.33789063-35.24414062-2.54882813s-11.33789063 25.13671875-2.54882813 35.24414063l75.49804688 88.06640625c5.00976563 6.328125 11.33789063 8.7890625 18.89648437 8.7890625h5.00976563c2.54882813 0 5.00976563 0 7.55859375-1.23046875 13.79882813-3.77929688 20.12695313-18.89648438 16.34765625-31.46484375-11.33789063-34.01367188-16.34765625-69.16992188-16.34765625-105.73242188 0-81.82617188 28.91601563-159.78515625 81.82617187-221.48437499 8.87695313-9.93164063 7.64648438-26.27929688-2.4609375-35.15625001z m0 1e-8" fill="#FFBD27" p-id="7265"></path><path d="M565.0859375 203.15234375c-169.89257813 0-308.23242188 138.42773438-308.23242188 308.23242188 0 169.89257813 138.42773438 308.23242188 308.23242188 308.23242187s308.23242188-138.42773438 308.23242188-308.23242188-138.33984375-308.23242188-308.23242188-308.23242187z m111.97265625 206.3671875L619.2265625 467.3515625h27.68554688c13.79882813 0 25.13671875 11.33789063 25.13671874 25.13671875 0 13.79882813-11.33789063 25.13671875-25.13671874 25.13671875h-62.92968751v37.70507813h62.9296875c13.79882813 0 25.13671875 11.33789063 25.13671875 25.13671875 0 13.79882813-11.33789063 25.13671875-25.13671875 25.13671875h-62.9296875V656.140625c0 13.79882813-11.33789063 25.13671875-25.13671875 25.13671875-13.79882813 0-25.13671875-11.33789063-25.13671875-25.13671875v-50.36132813H470.69140625c-13.79882813 0-25.13671875-11.33789063-25.13671875-25.13671875 0-13.79882813 11.33789063-25.13671875 25.13671875-25.13671875h62.9296875v-37.70507812H470.69140625c-13.79882813 0-25.13671875-11.33789063-25.13671875-25.13671875 0-13.79882813 11.33789063-25.13671875 25.13671875-25.13671875h40.25390625l-57.83203125-58.0078125c-10.10742188-10.10742188-10.10742188-26.45507813 0-35.24414063s26.45507813-10.10742188 35.24414063 0l76.72851562 76.72851563 76.72851563-76.72851563c10.10742188-10.10742188 26.45507813-10.10742188 35.24414062 1e-8 8.7890625 10.01953125 10.10742188 25.13671875 0 35.24414062z m0 0" fill="#3DB963" p-id="7266"></path></svg>