<?xml version="1.0" standalone="no"?><!DOCTYPE svg PUBLIC "-//W3C//DTD SVG 1.1//EN" "http://www.w3.org/Graphics/SVG/1.1/DTD/svg11.dtd"><svg t="1621582128086" class="icon" viewBox="0 0 1363 1024" version="1.1" xmlns="http://www.w3.org/2000/svg" p-id="5427" xmlns:xlink="http://www.w3.org/1999/xlink" width="266.2109375" height="200"><defs><style type="text/css"></style></defs><path d="M354.16145 326.16803938h640.8434925v3.16309781H354.16145z" fill="#CCCCCC" p-id="5428"></path><path d="M672.52718281 33.58154844h3.16309688v294.16803937h-3.16309688z" fill="#CCCCCC" p-id="5429"></path><path d="M404.29654063 179.08401969h539.78253656v3.16309687H404.29654063z" fill="#CCCCCC" p-id="5430"></path><path d="M776.11861625 554.38550281c0 16.13179594-5.85172969 31.63097156-16.44810563 43.80889594-0.94892906 1.10708437-1.89785813 2.21416781-3.00494249 3.16309687h-94.10214188c-0.94892906-0.94892906-2.05601344-2.05601344-3.00494156-3.16309687-6.16803938-7.11696844-10.91268562-15.34102125-13.60131844-24.51400312-1.89785813-6.32619469-2.84678719-12.81054375-2.84678719-19.29489282 0-2.68863281 0.15815531-5.37726563 0.47446406-8.06589843 4.42833562-36.37561781 37.64085656-62.313015 74.01647438-57.88467844 30.20757844 3.63756187 54.08896219 27.51894563 57.88467938 57.72652406 0.474465 2.84678719 0.63261937 5.53542 0.63261937 8.22405281zM626.02965406 601.35749562h-8.22405281l6.32619469-3.16309687 0.15815437-0.15815531 0.15815532 0.15815531z" fill="#2F2E41" p-id="5431"></path><path d="M681.383855 601.35749562h-8.0658975l1.58154844-3.16309687v-0.15815531l0.15815437 0.15815531z" fill="#2F2E41" p-id="5432"></path><path d="M705.10708437 538.25370687m-22.77430031 1e-8a22.77429937 22.77429937 0 1 0 45.54859969 0 22.77429937 22.77429937 0 1 0-45.54859969 0Z" fill="#FFFFFF" p-id="5433"></path><path d="M691.95249125 548.04582312a7.59143344 7.59143344 0 1 0 10.73572125-10.73609531 7.59143344 7.59143344 0 1 0-10.73572125 10.73609531Z" fill="#3F3D56" p-id="5434"></path><path d="M762.20098813 482.10873125c0.94892906-24.67215844-20.24382187-45.39044438-47.28830251-46.49752875s-49.97693531 17.87149875-50.92586531 42.54365719 17.87149875 30.20757844 45.07413563 31.31466281 52.03294875-2.68863281 53.14003219-27.36079125z" fill="#57B127" p-id="5435"></path><path d="M728.03953906 580.63920969c1.42339406 8.22405281-3.95387156 16.13179594-12.17792437 17.55518906s-16.13179594-3.95387156-17.55519-12.17792437c-1.42339406-8.22405281 4.90280063-11.07084 13.12685343-12.65238844s15.02471156-0.94892906 16.60626094 7.27512375z" fill="#FFFFFF" p-id="5436"></path><path d="M1055.26194406 598.19439875H277.14003313c-15.65733094 0-28.46787469 12.81054375-28.46787469 28.46787469s12.81054375 28.46787469 28.46787468 28.46787469h778.12191094c15.65733094 0 28.46787469-12.81054375 28.46787469-28.46787469s-12.81054375-28.46787469-28.46787469-28.46787469z" fill="#CCCCCC" p-id="5437"></path><path d="M996.74464625 354.63591406v245.14003313h-3.16309781V354.63591406c0-8.5403625-0.31630969-16.92256969-0.94892907-25.30477687-0.15815531-1.10708437-0.15815531-2.05601344-0.31630968-3.16309782-4.58649094-51.242175-21.50906063-100.74464625-49.34431594-143.92092281-0.63261937-1.10708437-1.42339406-2.05601344-2.05601344-3.16309687C882.24052719 89.72652406 782.60296531 35.79571625 675.69027969 35.16309688h-3.16309688c-6.009885 0-11.86161469 0.15815531-17.87149875 0.63261937-23.09061 1.42339406-46.02306469 5.21911031-68.3229 11.70346031-12.65238844 3.63756187-24.98846813 7.90774313-37.00823718 13.12685344-57.88467844 24.67215844-107.38714969 65.95057688-142.02306375 118.616145-0.63261937 1.10708437-1.42339406 2.05601344-2.05601344 3.16309687-27.83525531 43.33443187-44.757825 92.67874781-49.34431688 143.92092282-0.15815531 1.10708437-0.15815531 2.05601344-0.31630968 3.16309687-0.63261937 8.38220719-0.94892906 16.76441531-0.94892907 25.30477781v245.14003313h-3.16309687V354.63591406c0-9.64744687 0.474465-19.13673844 1.26523875-28.46787469 4.58649094-52.50741375 22.14168-103.11696844 51.08401969-147.24217406 42.85996687-65.95057688 108.49423406-114.02965406 184.40856656-135.22240594 22.14168-6.16803938 45.07413469-9.80560125 68.00659031-11.07084 5.85172969-0.474465 11.86161469-0.63261937 17.87149875-0.63261937 167.16968719 0.15815531 306.50411906 127.78912687 321.37067531 294.16803937 0.79077469 9.33113719 1.26523875 18.82042875 1.26523969 28.46787469z" fill="#3F3D56" p-id="5438"></path><path d="M584.90939 826.09555156c89.51565094 1.58154844 89.51565094 134.74794094 0 136.171335-89.51565094-1.58154844-89.51565094-134.74794094 0-136.171335z" fill="#2F2E41" p-id="5439"></path><path d="M553.91103781 947.55848469h20.71828688v37.00823718H553.91103781zM595.34761156 947.55848469h20.71828594v37.00823718h-20.71828594z" fill="#2F2E41" p-id="5440"></path><path d="M571.14991719 978.71499219c22.29983531-0.15815531 22.29983531 13.12685344 0 12.96869812-22.29983531 0-22.29983531-13.12685344 0-12.96869812z" fill="#2F2E41" p-id="5441"></path><path d="M612.58649094 977.76606219c22.29983531-0.15815531 22.29983531 13.12685344 0 12.96869906-22.45798969 0.15815531-22.45798969-13.12685344 0-12.96869906z" fill="#2F2E41" p-id="5442"></path><path d="M586.64909375 853.61449719c30.36573281 0.15815531 30.36573281 46.49752875 0 46.49752875s-30.36573281-46.33937437 0-46.49752875z" fill="#FFFFFF" p-id="5443"></path><path d="M586.64909375 869.11367375c10.12191094-0.15815531 10.12191094 15.65733094 0 15.49917656-9.96375656 0.15815531-9.96375656-15.65733094 0-15.49917656z" fill="#3F3D56" p-id="5444"></path><path d="M518.95881406 830.84019781c-12.81054375-58.35914344 85.24546969-80.18451375 98.5304775-21.98352562 5.53542 24.67215844-12.49423406 33.686985-39.69687 39.85502437s-53.45634281 6.80065875-58.8336075-17.87149875z" fill="#CCCCCC" p-id="5445"></path><path d="M614.64250438 643.26853344c15.81548625-41.59472813 35.90115281-33.84514031 19.92751218 7.59143343-15.81548625 41.59472813-35.74299844 33.84514031-19.92751219-7.59143343z" fill="#2F2E41" p-id="5446"></path><path d="M494.44481094 687.55189438c15.81548625-88.09225688 147.242175-66.74135063 134.43163031 21.82537125-15.81548625 88.09225688-147.242175 66.74135063-134.43163031-21.82537125z" fill="#2F2E41" p-id="5447"></path><path d="M530.66227344 751.92092281h20.71828687v37.00823719h-20.71828687zM572.09884719 751.92092281h20.71828593v37.00823719h-20.71828593z" fill="#2F2E41" p-id="5448"></path><path d="M547.90115281 782.919275c22.29983531-0.15815531 22.29983531 13.12685344 0 12.96869906-22.29983531 0.15815531-22.29983531-13.12685344 0-12.96869906z" fill="#2F2E41" p-id="5449"></path><path d="M589.33772656 782.12850125c22.29983531-0.15815531 22.29983531 13.12685344 0 12.96869812-22.45798969 0-22.45798969-13.12685344 0-12.96869812z" fill="#2F2E41" p-id="5450"></path><path d="M495.55189437 635.04448062c-12.81054375-58.35914344 85.24546969-80.18451375 98.53047751-21.98352468 5.53542 24.67215844-12.49423406 33.686985-39.69686907 39.85502437s-53.2981875 6.80065875-58.83360843-17.87149969z" fill="#57B127" p-id="5451"></path><path d="M454.27347594 652.28336094c4.74464625-12.96869812 68.48105437 17.23887937 61.52224031 29.25864937-4.90280063 12.81054375-68.63920969-17.39703469-61.52224031-29.25864937z" fill="#2F2E41" p-id="5452"></path><path d="M770.89454656 586.62961156a33.21252094 10.43822062 49.355 1 0 15.84020813-13.598295 33.21252094 10.43822062 49.355 1 0-15.84020813 13.598295Z" fill="#2F2E41" p-id="5453"></path><path d="M619.25068812 604.97864562a10.43822063 33.21252094 40.645 1 0 43.26730219-50.40066187 10.43822063 33.21252094 40.645 1 0-43.26730219 50.40066188Z" fill="#2F2E41" p-id="5454"></path><path d="M1238.72158156 247.09061h-93.31136719c-8.69851688 0-15.81548625-7.11696844-15.81548625-15.81548625s7.11696844-15.81548625 15.81548625-15.81548625v3.16309687c-6.95881406 0-12.65238844 5.69357531-12.65238937 12.65238938s5.69357531 12.65238844 12.65238937 12.65238844h93.31136719v3.16309781zM1142.24711656 330.91268562h-93.31136719c-8.69851688 0-15.81548625-7.11696844-15.81548625-15.81548624s7.11696844-15.81548625 15.81548625-15.81548625v3.16309781c-6.95881406 0-12.65238844 5.69357531-12.65238843 12.65238844s5.69357531 12.65238844 12.65238843 12.65238843h93.31136719v3.16309782zM1264.02635937 413.15321281v-3.16309781c6.95881406 0 12.65238844-5.69357531 12.65238844-12.65238844s-5.69357531-12.65238844-12.65238844-12.65238844h-93.31136718v-3.16309781h93.31136718c8.69851688 0 15.81548625 7.11696844 15.81548532 15.81548625s-7.11696844 15.81548625-15.81548532 15.81548625zM1294.0757825 125.31136719v-3.16309688c6.95881406 0 12.65238844-5.69357531 12.65238844-12.65238937s-5.69357531-12.65238844-12.65238844-12.65238844h-93.31136719v-3.16309687h93.31136719c8.69851688 0 15.81548625 7.11696844 15.81548625 15.81548531s-7.11696844 15.81548625-15.81548625 15.81548625zM1148.57331125 155.36079031h-93.31136719c-8.69851688 0-15.81548625-7.11696844-15.81548625-15.81548531s7.11696844-15.81548625 15.81548625-15.81548625v3.16309687c-6.95881406 0-12.65238844 5.69357531-12.65238843 12.65238938s5.69357531 12.65238844 12.65238843 12.65238844h93.31136719v3.16309687zM237.6013175 455.85502437H144.28995031c-8.69851688 0-15.81548625-7.11696844-15.81548531-15.81548531s7.11696844-15.81548625 15.81548531-15.81548625v3.16309688c-6.95881406 0-12.65238844 5.69357531-12.65238844 12.65238937s5.69357531 12.65238844 12.65238844 12.65238844h93.31136719v3.16309687zM286.62932469 509.62767688v-3.16309688c6.95881406 0 12.65238844-5.69357531 12.65238843-12.65238844s-5.69357531-12.65238844-12.65238843-12.65238937h-93.31136719v-3.16309688h93.31136719c8.69851688 0 15.81548625 7.11696844 15.81548625 15.81548625s-7.11696844 15.81548625-15.81548625 15.81548532zM141.12685344 539.67710094H47.81548625c-8.69851688 0-15.81548625-7.11696844-15.81548625-15.81548625s7.11696844-15.81548625 15.81548625-15.81548625v3.16309687c-6.95881406 0-12.65238844 5.69357531-12.65238938 12.65238938s5.69357531 12.65238844 12.65238938 12.65238843h93.31136719v3.16309782zM243.92751219 280.30313H150.616145c-8.69851688 0-15.81548625-7.11696844-15.81548625-15.81548625s7.11696844-15.81548625 15.81548625-15.81548531v3.16309687c-6.95881406 0-12.65238844 5.69357531-12.65238844 12.65238844s5.69357531 12.65238844 12.65238844 12.65238938h93.31136719v3.16309687zM292.95551937 334.0757825v-3.16309687c6.95881406 0 12.65238844-5.69357531 12.65238844-12.65238938s-5.69357531-12.65238844-12.65238843-12.65238844h-93.31136813v-3.16309687h93.31136813c8.69851688 0 15.81548625 7.11696844 15.81548531 15.81548531s-7.11696844 15.81548625-15.81548531 15.81548625zM147.45304813 364.12520563H54.14168c-8.69851688 0-15.81548625-7.11696844-15.81548531-15.81548532s7.11696844-15.81548625 15.81548531-15.81548625v3.16309688c-6.95881406 0-12.65238844 5.69357531-12.65238844 12.65238937s5.69357531 12.65238844 12.65238844 12.65238844h93.31136813v3.16309687zM916.0856675 767.42009844h-93.31136813c-8.69851688 0-15.81548625-7.11696844-15.81548531-15.81548532s7.11696844-15.81548625 15.81548532-15.81548625v3.16309688c-6.95881406 0-12.65238844 5.69357531-12.65238844 12.65238937s5.69357531 12.65238844 12.65238844 12.65238844h93.31136812v3.16309688zM1020.46787469 852.82372344v-3.16309781c6.95881406 0 12.65238844-5.69357531 12.65238844-12.65238844s-5.69357531-12.65238844-12.65238844-12.65238844h-93.31136719v-3.16309781h93.31136719c8.69851688 0 15.81548625 7.11696844 15.81548625 15.81548625s-7.11696844 15.81548625-15.81548625 15.81548625zM830.6820425 868.63920969h-93.31136719c-8.69851688 0-15.81548625-7.11696844-15.81548625-15.81548625s7.11696844-15.81548625 15.81548625-15.81548625v3.16309687c-6.95881406 0-12.65238844 5.69357531-12.65238844 12.65238938s5.69357531 12.65238844 12.65238844 12.65238844h93.31136719v3.16309781zM492.23064219 860.73146656v-3.16309781c6.95881406 0 12.65238844-5.69357531 12.65238937-12.65238844s-5.69357531-12.65238844-12.65238937-12.65238843h-93.31136719v-3.16309782h93.31136719c8.69851688 0 15.81548625 7.11696844 15.81548625 15.81548625s-7.11696844 15.81548625-15.81548625 15.81548625zM210.71499219 900.27018125H117.40362406c-8.69851688 0-15.81548625-7.11696844-15.81548531-15.81548625s7.11696844-15.81548625 15.81548531-15.81548531v3.16309687c-6.95881406 0-12.65238844 5.69357531-12.65238844 12.65238844s5.69357531 12.65238844 12.65238844 12.65238938h93.31136813v3.16309687z" fill="#E6E6E6" p-id="5455"></path><path d="M840.01317969 992h-602.57001657c-0.94892906 0-1.58154844-0.63261937-1.58154843-1.58154844s0.63261937-1.58154844 1.58154843-1.58154843h602.57001657c0.94892906 0 1.58154844 0.63261937 1.58154843 1.58154843s-0.79077469 1.58154844-1.58154843 1.58154844z" fill="#3F3D56" p-id="5456"></path><path d="M326.95881406 990.73476125c-1.26523875 2.84678719-5.37726563 0.31630969-4.11202687-2.37232312 5.53542-13.12685344 9.33113719-26.88632625 11.38715062-40.96210875 3.32125219-24.19769344 1.42339406-48.86985188-5.37726562-72.27677063-0.31630969-0.79077469-0.474465-1.73970375-0.79077469-2.53047844l-1.89785812-5.69357437c-7.59143344-22.14168-19.76935781-42.2273475-35.90115282-59.3080725-2.05601344-2.21416781 1.26523875-5.53542 3.32125219-3.32125219 10.12191094 10.59637594 18.82042875 22.616145 25.77924188 35.58484312 3.32125219 6.16803938 6.32619469 12.49423406 8.85667218 19.13673844 0.94892906 2.5304775 1.89785813 5.06095594 2.84678719 7.74958781 5.21911031 15.34102125 8.22405281 31.31466188 9.17298188 47.60461313 1.58154844 26.09555156-3.0049425 52.34925844-13.28500782 76.3887975z" fill="#3F3D56" p-id="5457"></path><path d="M363.17627656 749.07413469c-5.21911031 19.29489281-10.59637594 38.58978563-15.81548625 57.88467937-5.53542 19.92751219-10.91268562 39.85502437-16.28995031 59.78253657-0.79077469 2.84678719-1.58154844 5.69357531-2.37232313 8.38220812-0.31630969-0.79077469-0.474465-1.73970375-0.79077375-2.53047844l-1.89785812-5.69357437c0.79077469-2.68863281 1.42339406-5.21911031 2.21416781-7.90774313 0.94892906-3.63756187 1.89785813-7.11696844 3.0049425-10.75453031 9.17298187-33.52883062 18.34596375-67.05766031 27.36079031-100.42833656 0.31630969-1.26523875 1.73970375-1.89785813 3.0049425-1.58154844 1.26523875 0.474465 1.89785813 1.58154844 1.58154844 2.84678719z" fill="#3F3D56" p-id="5458"></path><path d="M265.59472812 756.03294875c-2.68863281 6.009885-5.53542 12.17792437-6.80065875 18.82042875s-0.63261937 13.75947281 2.84678719 19.29489281c3.0049425 4.27018125 7.11696844 7.74958781 11.70345938 10.28006531 6.64250437 3.79571625 15.18286688 6.48434906 21.50906156 2.21416875 6.32619469-4.27018125 7.11696844-13.91762813 3.47940656-20.71828687s-10.28006625-11.38714969-16.76441531-15.49917656-11.545305-7.43327812-15.81548531-13.91762719l-0.15815532-0.474465zM378.35914344 694.19439875c-6.32619469 2.05601344-12.81054375 4.27018125-18.34596375 7.74958781s-10.43822062 8.85667219-12.17792438 15.18286688c-1.10708437 5.21911031-0.94892906 10.43822062 0.474465 15.49917656 1.73970375 7.43327812 5.53542 15.49917656 12.96869813 17.39703469 7.43327812 1.73970375 15.02471156-4.27018125 17.71334437-11.545305s1.42339406-15.18286688 0-22.77430031-2.37232312-13.6013175-0.474465-21.03459657l-0.15815437-0.47446406zM264.64579906 831.1565075c1.73970375 6.48434906 3.47940656 12.96869812 6.80065875 18.82042781s8.22405281 10.91268562 14.5502475 12.96869906c5.06095594 1.42339406 10.43822062 1.42339406 15.49917563 0.31630969 7.43327812-1.26523875 15.81548625-4.74464625 18.02965406-12.17792437 2.21416781-7.43327812-3.47940656-15.18286688-10.596375-18.18780844s-15.18286688-2.21416781-22.77430031-1.26523969-13.6013175 1.73970375-21.03459656-0.47446406h-0.47446407zM283.62438219 914.97858313c1.73970375 6.48434906 3.47940656 12.96869812 6.80065875 18.82042874s8.22405281 10.91268562 14.5502475 12.96869813c5.06095594 1.42339406 10.43822062 1.42339406 15.49917656 0.31630969 7.43327812-1.26523875 15.81548625-4.74464625 18.02965406-12.17792438 2.21416781-7.43327812-3.47940656-15.18286688-10.59637594-18.18780844s-15.18286688-2.21416781-22.77430031-1.26523875-13.6013175 1.73970375-21.03459562-0.474465h-0.474465zM387.69027969 859.62438219c-1.73970375 6.48434906-3.47940656 12.96869812-6.80065875 18.82042875s-8.22405281 10.91268562-14.55024657 12.96869812c-5.06095594 1.42339406-10.43822062 1.42339406-15.49917656 0.31630969-7.43327812-1.26523875-15.81548625-4.74464625-18.02965406-12.17792437-2.21416781-7.43327812 3.47940656-15.18286688 10.59637594-18.18780844s15.18286688-2.21416781 22.77429937-1.26523875 13.6013175 1.73970375 21.03459656-0.474465h0.47446407zM406.66886281 774.22075812c-1.73970375 6.48434906-3.47940656 12.96869812-6.80065875 18.82042782s-8.22405281 10.91268562-14.55024656 12.96869906c-5.06095594 1.42339406-10.43822062 1.42339406-15.49917656 0.31630969-7.43327812-1.26523875-15.81548625-4.74464625-18.02965406-12.17792438-2.21416781-7.43327812 3.47940656-15.18286688 10.59637593-18.18780937s15.18286688-2.21416781 22.77429938-1.26523875 13.6013175 1.73970375 21.03459656-0.47446407h0.47446406z" fill="#57B127" p-id="5459"></path></svg>