<?xml version="1.0" standalone="no"?><!DOCTYPE svg PUBLIC "-//W3C//DTD SVG 1.1//EN" "http://www.w3.org/Graphics/SVG/1.1/DTD/svg11.dtd"><svg t="1621582519119" class="icon" viewBox="0 0 1136 1024" version="1.1" xmlns="http://www.w3.org/2000/svg" p-id="5594" xmlns:xlink="http://www.w3.org/1999/xlink" width="221.875" height="200"><defs><style type="text/css"></style></defs><path d="M365.31634626 351.4271318c-12.42124893-37.15082514-50.81419896-57.81526635-76.1083781-49.3462334s-43.47436994 48.10410852-31.05312165 85.25493366c11.51788501 34.44073471 46.41030167 54.31473234 70.34943558 50.70127863-0.22584067 0.33876162-0.33876162 0.67752261-0.3387616 1.0162836l-0.67752262 6.09770413c-0.22584067 1.46796555 0.90336326 2.93593174 2.37132945 3.04885205 0.45168196 0 0.90336326 0 1.24212491-0.11292031l12.30832794-4.4038973c1.46796555-0.56460228 2.14548816-2.14548816 1.69380684-3.50053402-0.11292033-0.45168196-0.33876162-0.79044294-0.6775226-1.01628359l-4.4038973-4.29097697c-0.11292033-0.11292033-0.33876162-0.22584067-0.56460227-0.33876161 21.45488416-11.63080535 37.48958677-48.55578982 25.85878142-83.10944487z" fill="#F2F2F2" p-id="5595"></path><path d="M320.37401015 324.10038481c21.45488416 11.06620306 30.48851937 37.03790482 20.55152023 59.05739126-1.01628423 2.48424979 2.82301078 3.72637468 3.95221534 1.24212489 10.38868044-23.82621296 0.79044294-51.6046419-22.13240614-63.68712983-2.48424979-1.35504521-4.74265827 2.14548816-2.37132943 3.38761368z" fill="#FFFFFF" p-id="5596"></path><path d="M868.94151698 297.22531979c-12.42124893-37.15082514-50.81419896-57.81526635-76.10837812-49.34623341s-43.47436994 48.10410852-31.05312166 85.25493365c11.51788501 34.44073471 46.41030167 54.31473234 70.3494356 50.70127865-0.22584067 0.33876162-0.33876162 0.67752261-0.33876162 1.01628359l-0.67752263 6.09770413c-0.22584067 1.46796555 0.90336326 2.93593174 2.37132947 3.04885207 0.45168196 0 0.90336326 0 1.24212489-0.11292098l12.30832795-4.40389663c1.46796555-0.56460228 2.14548816-2.14548816 1.69380686-3.50053402-0.11292033-0.45168196-0.33876162-0.79044294-0.67752262-1.01628423l-4.40389728-4.29097633c-0.11292033-0.11292033-0.33876162-0.22584067-0.56460228-0.33876161 21.45488416-11.63080535 37.48958677-48.55578982 25.85878144-83.10944488z" fill="#F2F2F2" p-id="5597"></path><path d="M823.99918084 269.89857281c21.45488416 11.06620306 30.48851937 37.03790482 20.55152024 59.0573906-1.01628423 2.48424979 2.82301078 3.72637468 3.95221598 1.2421249 10.38868044-23.82621296 0.79044294-51.6046419-22.13240677-63.68712918-2.48424979-1.35504521-4.74265827 2.14548816-2.37132945 3.38761368z" fill="#FFFFFF" p-id="5598"></path><path d="M576.47757212 237.37748561c-12.42124893-37.15082514-50.81419896-57.81526635-76.10837747-49.34623343s-43.47436994 48.10410852-31.05312165 85.25493368c11.51788501 34.44073471 46.41030167 54.31473234 70.34943497 50.70127862-0.22584067 0.33876162-0.33876162 0.67752261-0.33876099 1.01628362l-0.67752262 6.09770412c-0.22584067 1.46796555 0.90336326 2.93593174 2.37132946 3.04885206 0.45168196 0 0.90336326 0 1.2421249-0.11292096l12.30832794-4.40389728c1.46796555-0.56460228 2.14548816-2.14548816 1.69380684-3.50053338-0.11292033-0.45168196-0.33876162-0.79044294-0.67752322-1.01628423l-4.40389667-4.29097634c-0.11292033-0.11292033-0.33876162-0.22584067-0.56460227-0.33876161 21.45488416-11.63080535 37.48958677-48.55578982 25.85878078-83.10944487z" fill="#F2F2F2" p-id="5599"></path><path d="M531.53523663 210.05073861c21.45488416 11.06620306 30.48851937 37.03790482 20.55152026 59.05739062-1.01628423 2.48424979 2.82301078 3.72637468 3.95221532 1.24212489 10.38868044-23.82621296 0.79044294-51.6046419-22.13240674-63.68712919-2.48424979-1.35504521-4.74265827 2.14548816-2.37132883 3.38761368z" fill="#FFFFFF" p-id="5600"></path><path d="M514.14548816 413.30753382m-2.93593109 0a2.93593174 2.93593174 0 1 0 5.87186283 0 2.93593174 2.93593174 0 1 0-5.87186284 0Z" fill="#CCCCCC" p-id="5601"></path><path d="M507.82194338 529.38974785m-5.87186284 0a5.87186284 5.87186284 0 1 0 11.74372629 0 5.87186284 5.87186284 0 1 0-11.74372629 0Z" fill="#CCCCCC" p-id="5602"></path><path d="M409.8069998 509.28990956m-3.38761305 0a3.38761306 3.38761306 0 1 0 6.77522674 0 3.38761306 3.38761306 0 1 0-6.77522674 0Z" fill="#CCCCCC" p-id="5603"></path><path d="M461.18580104 453.62013137m-3.61345434 0a3.61345435 3.61345435 0 1 0 7.2269087 0 3.61345435 3.61345435 0 1 0-7.2269087 0Z" fill="#CCCCCC" p-id="5604"></path><path d="M641.51974654 668.7335732m-2.93593109 1e-8a2.93593174 2.93593174 0 1 0 5.87186283 0 2.93593174 2.93593174 0 1 0-5.87186283 0Z" fill="#CCCCCC" p-id="5605"></path><path d="M544.40816687 604.93352367m-5.87186282 0a5.87186284 5.87186284 0 1 0 11.74372566 0 5.87186284 5.87186284 0 1 0-11.74372567 0Z" fill="#CCCCCC" p-id="5606"></path><path d="M611.03122782 530.40603208m-3.3876137 0a3.38761306 3.38761306 0 1 0 6.77522675 0 3.38761306 3.38761306 0 1 0-6.77522675 0Z" fill="#CCCCCC" p-id="5607"></path><path d="M633.27655489 602.78803552m-3.61345435 0a3.61345435 3.61345435 0 1 0 7.22690807 0 3.61345435 3.61345435 0 1 0-7.22690807 0Z" fill="#CCCCCC" p-id="5608"></path><path d="M809.15892157 781.32733527a24.27789492 7.67859001 50.058 1 0 11.77426879-9.85949115 24.27789492 7.67859001 50.058 1 0-11.7742688 9.85949116Z" fill="#2F2E41" p-id="5609"></path><path d="M763.36090372 768.10356199m-48.66871081 0a48.66871016 48.66871016 0 1 0 97.33742096 0 48.66871016 48.66871016 0 1 0-97.33742096 0Z" fill="#2F2E41" p-id="5610"></path><path d="M769.11984624 806.27067138h14.79257771v26.4233837h-14.79257772zM739.53469011 806.27067138h14.79257838v26.4233837h-14.79257838z" fill="#2F2E41" p-id="5611"></path><path d="M759.29576806 833.03281608a12.30832794 4.62973793 0 1 0 24.61665589 0 12.30832794 4.62973793 0 1 0-24.61665589 0Z" fill="#2F2E41" p-id="5612"></path><path d="M729.71061193 832.35529347a12.30832794 4.62973793 0 1 0 24.61665657 0 12.30832794 4.62973793 0 1 0-24.61665656 0Z" fill="#2F2E41" p-id="5613"></path><path d="M748.00372369 706.90068258c4.29097695-17.50266818 23.48745198-27.77842893 42.79684734-23.03577004s31.39188264 22.80992937 27.10090632 40.31259756-18.74479307 17.50266818-38.05418906 12.76000991-36.13454155-12.53416925-31.8435646-30.03683743z" fill="#E6E6E6" p-id="5614"></path><path d="M705.24228873 752.50648801a24.27789492 7.67859001 25.373 1 0 6.58069555-13.87578558 24.27789492 7.67859001 25.373 1 0-6.58069555 13.87578558Z" fill="#2F2E41" p-id="5615"></path><path d="M756.02107468 757.82780187m-16.26054328-1e-8a16.26054392 16.26054392 0 1 0 32.52108722 0 16.26054392 16.26054392 0 1 0-32.52108722 0Z" fill="#FFFFFF" p-id="5616"></path><path d="M749.35876892 751.95593904m-5.42018152 0a5.42018152 5.42018152 0 1 0 10.84036241 0 5.42018152 5.42018152 0 1 0-10.84036241 0Z" fill="#3F3D56" p-id="5617"></path><path d="M766.18391448 791.59101397c1.01628423 5.87186284-2.82301078 11.51788501-8.69487361 12.53416925s-11.51788501-2.82301078-12.53416924-8.69487424c-1.01628423-5.87186284 3.50053339-7.90443067 9.37239687-9.03363524s10.8403624-0.67752261 11.85664598 5.19434022z" fill="#FFFFFF" p-id="5618"></path><path d="M347.67046159 753.93955678a7.67859001 24.27789492 20.916 1 0 17.33436145-45.35619721 7.67859001 24.27789492 20.916 1 0-17.33436145 45.35619721Z" fill="#2F2E41" p-id="5619"></path><path d="M311.45329525 768.10356199m-48.6687108 0a48.66871016 48.66871016 0 1 0 97.33742096 0 48.66871016 48.66871016 0 1 0-97.33742096 0Z" fill="#2F2E41" p-id="5620"></path><path d="M289.20796815 806.27067138h14.79257774v26.4233837H289.20796815zM318.79312362 806.27067138h14.79257838v26.4233837h-14.79257837z" fill="#2F2E41" p-id="5621"></path><path d="M289.20796815 833.03281608a12.30832794 4.62973793 0 1 0 24.61665655 0 12.30832794 4.62973793 0 1 0-24.61665654 0Z" fill="#2F2E41" p-id="5622"></path><path d="M318.79312362 832.35529347a12.30832794 4.62973793 0 1 0 24.61665655 0 12.30832794 4.62973793 0 1 0-24.61665654 0Z" fill="#2F2E41" p-id="5623"></path><path d="M312.5824998 755.6823137m-16.5993049 0a16.5993049 16.5993049 0 1 0 33.19860982 0 16.5993049 16.5993049 0 1 0-33.19860982 0Z" fill="#FFFFFF" p-id="5624"></path><path d="M312.5824998 755.6823137m-5.53310185 0a5.53310184 5.53310184 0 1 0 11.06620307 0 5.53310184 5.53310184 0 1 0-11.06620307 0Z" fill="#3F3D56" p-id="5625"></path><path d="M264.25255063 722.82246488c-3.95221534-17.61558914 8.58195328-35.34409862 28.0042696-39.63507493s38.28002971 6.43646511 42.23224504 23.93913392-8.9207149 24.05205425-28.34303057 28.45595091-37.94126872 4.85557924-41.89348407-12.7600099z" fill="#E6E6E6" p-id="5626"></path><path d="M253.38096597 752.39436203a24.27789492 7.67859001 25.373 1 0 6.58069553-13.87578556 24.27789492 7.67859001 25.373 1 0-6.58069553 13.87578557Z" fill="#2F2E41" p-id="5627"></path><path d="M287.51416131 785.60623079c0 4.74265827 12.30832794 14.11505513 25.85878144 14.11505515s26.31046275-13.43753251 26.31046275-18.18019143-12.76000991 0.90336326-26.31046275 0.90336391-25.85878143-1.58088588-25.85878144 3.16177238z" fill="#FFFFFF" p-id="5628"></path><path d="M543.73064427 721.80618127m-48.6687108 0a48.66871016 48.66871016 0 1 0 97.33742096 0 48.66871016 48.66871016 0 1 0-97.33742096 0Z" fill="#2F2E41" p-id="5629"></path><path d="M521.59823751 759.97329067h14.79257773v26.42338308h-14.79257773zM551.07047266 759.97329067h14.79257836v26.42338308h-14.79257836z" fill="#2F2E41" p-id="5630"></path><path d="M521.59823751 786.73543537a12.30832794 4.62973793 0 1 0 24.61665655 0 12.30832794 4.62973793 0 1 0-24.61665655 0Z" fill="#2F2E41" p-id="5631"></path><path d="M551.07047266 786.05791276a12.30832794 4.62973793 0 1 0 24.61665654 0 12.30832794 4.62973793 0 1 0-24.61665654 0Z" fill="#2F2E41" p-id="5632"></path><path d="M496.52989965 676.52508354c-3.95221534-17.61558914 8.58195328-35.34409862 28.0042696-39.63507493s38.28002971 6.43646511 42.23224503 23.93913392-8.9207149 24.05205425-28.34303056 28.45595155-37.94126872 4.85557924-41.89348407-12.76001054z" fill="#57B127" p-id="5633"></path><path d="M571.03115405 713.54154846a8.46903296 26.98798536 44.975 1 0 38.150118-38.18342545 8.46903296 26.98798536 44.975 1 0-38.150118 38.18342545Z" fill="#2F2E41" p-id="5634"></path><path d="M479.42839372 703.86577178a26.98798536 8.46903295 45.024 1 0 11.98203792-11.97200348 26.98798536 8.46903295 45.024 1 0-11.98203792 11.97200348Z" fill="#2F2E41" p-id="5635"></path><path d="M839.35636085 413.08169316c-1.58088588-49.91083505-35.79577993-89.207149-76.33421876-87.96502473-90.22343322 2.71009044-92.3689214 168.02561755-5.30726055 179.88226418l-1.80672718 14.6796574 26.87506504-0.90336326-2.82301078-14.45381676c35.11825732-7.67859001 60.86411843-45.95861973 59.39615223-91.23971683z" fill="#66B3FF" p-id="5636"></path><path d="M718.19272693 440.74720112l-10.1628398 0.33876163c-3.95221534-18.97063435-4.62973793-38.39295003-1.91964748-57.5894257l10.16283978-0.33876098c-3.61345435 20.09983894-3.04885207 39.29631395 1.9196475 57.58942505z" fill="#FFFFFF" p-id="5637"></path><path d="M753.67571766 505.16266733l30.47270996-0.986925 0.21906574 6.77183928-30.47271059 0.98692436z" fill="#3F3D56" p-id="5638"></path><path d="M695.60863823 763.47382404l-3.04885144-1.46796554 75.43085486-255.87772134 3.04885207 1.46796555z" fill="#3F3D56" p-id="5639"></path><path d="M901.80136515 455.3139382c18.40603208-46.41030167 2.82301078-96.09529607-34.89241602-111.00079413-83.78696812-33.53737144-151.76507363 117.2114186-76.67298038 162.83127669l-7.56566968 12.64708958 24.95541752 9.93699913 3.27469336-14.45381675c35.23117764 6.88814707 74.18873061-17.95435012 90.9009552-59.96075451z" fill="#57B127" p-id="5640"></path><path d="M779.73436797 432.27816818l-9.48531719-3.72637467c3.95221534-18.97063435 11.06620306-37.03790482 21.22904286-53.5242894l9.48531718 3.72637468c-11.4049647 16.82514557-18.51895242 34.66657537-21.22904285 53.52428939z" fill="#FFFFFF" p-id="5641"></path><path d="M784.01744022 511.7798051l2.50118771-6.2953147 28.33399735 11.25816787-2.50231685 6.29644386z" fill="#3F3D56" p-id="5642"></path><path d="M695.04403659 756.69859731l-2.93593175-1.69380621L797.4628768 514.71009044l2.93593173 1.58088651z" fill="#3F3D56" p-id="5643"></path><path d="M329.29472505 416.35638588c-19.98691795-45.73277906-66.17137898-69.67191236-103.32220413-53.52428939-82.77068389 35.79577993-23.71329263 190.27094463 61.54164039 169.15482147l3.72637468 14.34089643 24.61665654-10.72744207-7.9044313-12.42124829c29.58515547-20.21275926 39.40923427-65.38093603 21.34196382-106.82273814z" fill="#57B127" p-id="5644"></path><path d="M226.98880452 486.81874117l-9.37239686 4.0651363c-10.72744207-16.14762296-18.51895242-33.98905276-23.03577002-52.84676678l9.37239685-4.0651363c3.95221534 19.98691795 11.63080535 37.6025071 23.03577003 52.84676678z" fill="#FFFFFF" p-id="5645"></path><path d="M283.6782544 533.49101829l27.94780878-12.180728 2.706703 6.21062447-27.94780879 12.18072799z" fill="#3F3D56" p-id="5646"></path><path d="M376.26962899 764.15134665c-0.90336326 0.22584067-1.80672717-0.33876162-2.03256782-1.24212489l-73.62412833-233.29363262 3.27469272-0.79044357L377.51175388 762.0058585c0.22584067 0.90336326-0.33876162 1.91964749-1.24212489 2.14548815z" fill="#3F3D56" p-id="5647"></path><path d="M395.91778597 837.88839531h-177.28509408c-0.67752261 0-1.12920456-0.45168196-1.12920456-1.12920456s0.45168196-1.12920456 1.12920456-1.12920457h177.28509408c0.67752261 0 1.12920456 0.45168196 1.12920393 1.12920457s-0.45168196 1.12920456-1.12920393 1.12920456zM846.47034859 837.88839531h-177.28509344c-0.67752261 0-1.12920456-0.45168196-1.12920457-1.12920456s0.45168196-1.12920456 1.12920457-1.12920457h177.28509344c0.67752261 0 1.12920456 0.45168196 1.12920456 1.12920457s-0.45168196 1.12920456-1.12920456 1.12920456zM635.30912271 791.59101397h-177.28509407c-0.67752261 0-1.12920456-0.45168196-1.12920455-1.12920457s0.45168196-1.12920456 1.12920455-1.12920392h177.28509407c0.67752261 0 1.12920456 0.45168196 1.12920457 1.12920392s-0.45168196 1.12920456-1.12920456 1.12920456z" fill="#CCCCCC" p-id="5648"></path><path d="M541.69807645 714.80511388m-16.59930492 0a16.5993049 16.5993049 0 1 0 33.19860981 0 16.5993049 16.5993049 0 1 0-33.19860981 0Z" fill="#FFFFFF" p-id="5649"></path><path d="M541.69807645 714.80511388m-5.53310186 0a5.53310184 5.53310184 0 1 0 11.06620305 0 5.53310184 5.53310184 0 1 0-11.06620306 0Z" fill="#3F3D56" p-id="5650"></path><path d="M554.90976765 745.63239424c1.01628423 5.87186284-2.82301078 11.51788501-8.69487359 12.53416925s-11.51788501-2.82301078-12.53416925-8.69487424c-1.01628423-5.87186284 3.50053339-7.90443067 9.37239686-9.03363524s10.72744207-0.67752261 11.85664598 5.19434023z" fill="#FFFFFF" p-id="5651"></path></svg>