<?xml version="1.0" standalone="no"?><!DOCTYPE svg PUBLIC "-//W3C//DTD SVG 1.1//EN" "http://www.w3.org/Graphics/SVG/1.1/DTD/svg11.dtd"><svg t="1621583462241" class="icon" viewBox="0 0 1024 1024" version="1.1" xmlns="http://www.w3.org/2000/svg" p-id="5951" xmlns:xlink="http://www.w3.org/1999/xlink" width="200" height="200"><defs><style type="text/css"></style></defs><path d="M622.94990522 356.33163351c0 3.9744887-0.12420286 7.9489774-0.37260789 11.79926392-1.4904336 22.48070214-7.07955808 44.46459287-16.76737481 64.8338478-0.12420286 0.12420286-0.12420286 0.37260858-0.24840504 0.49681075-0.49681143 0.99362217-0.86941931 1.86304149-1.36623075 2.85666365-2.85666367 5.71332733-6.08593591 11.3024525-9.43941099 16.76737483-32.16851818 50.42632591-87.43875279 81.47701906-147.30448904 82.84324981l1.73883864 102.0946797 23.10171575-12.17187182 4.09869155 7.82477455-27.07620443 14.40752188 3.35347508 189.65763537v2.48405508l-17.88519983 1.4904336 5.58912515-305.78722836c-47.94227081-0.74521646-93.5246887-20.4934578-126.68682906-55.14603176-1.11782503-1.11782503-2.23565007-2.35985292-3.35347509-3.60188013l-0.12420286-0.12420286c-13.66230473-14.90433264-24.7163522-32.04431532-32.66532893-50.67473163 0.12420286 0.24840571 0.37260858 0.37260858 0.49681075 0.62101428C240.65376864 339.56425937 278.03880342 237.96639042 363.36610901 195.61324478c0.6210136-0.37260858 1.24202788-0.6210136 1.86304149-0.86941934 84.20948056-40.61430701 185.43474095-9.8120189 232.88020033 70.671378 1.11782503 1.86304149 2.1114472 3.72608299 3.22927224 5.58912515 14.15911618 26.20678513 21.61128283 55.51863965 21.61128215 85.32730492z" fill="#E5E5E5" p-id="5952"></path><path d="M490.67395167 788.6814881m-53.53139529 0a53.53139529 53.53139529 0 1 0 107.06279058 0 53.53139529 53.53139529 0 1 0-107.06279059 0Z" fill="#2F2E41" p-id="5953"></path><path d="M505.95089288 825.44550927h47.9422708v16.27056337h-47.9422708z" fill="#2F2E41" p-id="5954"></path><path d="M549.17345785 828.17797008a13.53810257 5.09231373 90 1 0 10.18462746 0 13.53810257 5.09231373 90 1 0-10.18462746 0Z" fill="#2F2E41" p-id="5955"></path><path d="M494.77264322 824.20348138h47.94227082v16.27056338h-47.94227082z" fill="#2F2E41" p-id="5956"></path><path d="M537.99520821 826.93594219a13.53810257 5.09231373 90 1 0 10.18462746 0 13.53810257 5.09231373 90 1 0-10.18462746 0Z" fill="#2F2E41" p-id="5957"></path><path d="M438.75719217 739.00037865c-4.34709726-19.37563277 9.439411-38.87546838 30.8022881-43.59517355s42.10473994 7.07955808 46.45183722 26.330988-9.8120189 26.45519084-31.17489601 31.29909887-41.73213204 5.2165166-46.07922931-14.03491332z" fill="#57B127" p-id="5958"></path><path d="M511.16740947 785.70062158c-5.71332733 0.12420286-10.92984393-3.47767796-12.79288543-8.81839674-0.24840571-0.6210136 0.12420286-1.36623075 0.74521646-1.61463644s1.36623075 0.12420286 1.61463579 0.74521714c1.86304149 5.58912449 8.32158598 8.56999169 14.40752188 6.58274665 2.98086653-0.99362217 5.4649223-3.10506938 6.95535522-5.83753019 1.24202788-2.48405578 1.4904336-5.2165166 0.62101361-7.82477455-0.24840571-0.6210136 0.12420286-1.36623075 0.74521715-1.61463646s1.36623075 0.12420286 1.61463578 0.74521714c1.11782503 3.22927224 0.86941931 6.70694951-0.74521648 9.8120189-1.73883863 3.35347508-4.71970515 5.96173306-8.32158596 7.20376094-1.61463578 0.37260858-3.22927224 0.6210136-4.84390802 0.6210136zM535.01434167 792.90438252c2.98086653 5.83753019 0.74521646 13.04129114-5.09231373 16.02215765-5.83753019 2.98086653-13.04129114 0.74521646-16.02215766-5.09231372-2.98086653-5.83753019 1.11782503-9.439411 6.95535522-12.42027754s11.17824965-4.34709726 14.15911617 1.49043361z" fill="#FFFFFF" p-id="5959"></path><path d="M725.91400493 842.70969482H252.70143761c-0.74521646 0-1.24202788-0.49681143-1.24202722-1.24202789s0.49681143-1.24202788 1.24202722-1.2420279h473.21256733c0.74521646 0 1.24202788 0.49681143 1.2420272 1.2420279s-0.49681143 1.24202788-1.2420272 1.24202789z" fill="#3F3D56" p-id="5960"></path><path d="M462.25751083 833.10247166a29.68446308 9.31520815 75.535 1 0 18.03983932-4.65366456 29.68446308 9.31520815 75.535 1 0-18.03983932 4.65366456Z" fill="#2F2E41" p-id="5961"></path><path d="M568.5490906 724.96546533h-20.36925492c-0.49681143 0-0.99362217-0.37260858-0.99362219-0.99362217 0-0.24840571 0.12420286-0.49681143 0.37260857-0.74521646l18.50621344-16.76737481h-17.13998269c-0.49681143 0-0.99362217-0.37260858-0.99362218-0.99362217 0-0.49681143 0.37260858-0.99362217 0.99362218-0.99362217H568.5490906c0.49681143 0 0.99362217 0.37260858 0.99362218 0.99362217 0 0.24840571-0.12420286 0.49681143-0.3726079 0.74521714l-18.50621343 16.76737413H568.5490906c0.49681143 0 0.99362217 0.37260858 0.99362218 0.99362217-0.12420286 0.49681143-0.49681143 0.99362217-0.99362218 0.99362217zM594.38326784 695.15680007h-20.36925493c-0.49681143 0-0.99362217-0.37260858-0.99362218-0.99362216 0-0.24840571 0.12420286-0.49681143 0.37260789-0.74521715l18.50621344-16.76737413H574.75922938c-0.49681143 0-0.99362217-0.37260858-0.9936222-0.99362216 0-0.49681143 0.37260858-0.99362217 0.9936222-0.99362219h19.62403846c0.49681143 0 0.99362217 0.37260858 0.99362218 0.99362219 0 0.24840571-0.12420286 0.49681143-0.37260857 0.74521645l-18.50621344 16.76737481h17.88519983c0.49681143 0 0.99362217 0.37260858 0.99362218 0.99362218s-0.37260858 0.99362217-0.99362218 0.99362216zM582.95661249 662.61567332h-20.36925493c-0.49681143 0-0.99362217-0.37260858-0.99362218-0.99362218 0-0.24840571 0.12420286-0.49681143 0.37260856-0.74521714l18.50621276-16.76737412h-17.13998268c-0.49681143 0-0.99362217-0.37260858-0.99362218-0.99362218 0-0.49681143 0.37260858-0.99362217 0.99362218-0.99362218h19.62403847c0.49681143 0 0.99362217 0.37260858 0.99362217 0.99362218 0 0.24840571-0.12420286 0.49681143-0.37260856 0.74521647l-18.50621277 16.76737479h17.88519916c0.49681143 0 0.99362217 0.37260858 0.99362217 0.99362218-0.12420286 0.49681143-0.49681143 0.86941931-0.99362217 0.99362218z" fill="#CBCBCB" p-id="5962"></path><path d="M723.92676057 384.7740687l15.89795481-12.66868256c-12.29607468-1.36623075-17.38838841 5.34071946-19.49983561 10.68143822-9.68781604-3.9744887-20.12084923 1.24202788-20.12084923 1.24202788l31.79591029 11.55085822c-1.61463578-4.34709726-4.34709726-8.07318026-8.07318026-10.80564176zM268.10258167 177.35543703L284.00053647 164.56255161C271.70446247 163.19632086 266.61214874 170.02747392 264.50070153 175.36819269 254.93708766 171.26950112 244.37985231 176.61022058 244.37985231 176.61022058l31.79590962 11.55085821c-1.61463578-4.34709726-4.34709726-8.07318026-8.07318027-10.80564176zM763.67164759 220.82640772l15.8979555-12.66868256c-12.29607468-1.36623075-17.38838841 5.34071946-19.49983563 10.68143821-9.68781604-3.9744887-20.12084923 1.24202788-20.12084922 1.24202788l31.79590962 11.55085822c-1.61463578-4.34709726-4.34709726-8.07318026-8.07318027-10.80564175z" fill="#3F3D56" p-id="5963"></path></svg>